<svg width="97" height="30" viewBox="0 0 97 30" fill="none" xmlns="http://www.w3.org/2000/svg">
<path d="M13.8086 0.5625V29H10.0977V0.5625H13.8086ZM22.9492 0.5625V3.64844H0.976562V0.5625H22.9492ZM36.1328 3.08203L26.7188 29H22.8711L33.7109 0.5625H36.1914L36.1328 3.08203ZM44.0234 29L34.5898 3.08203L34.5312 0.5625H37.0117L47.8906 29H44.0234ZM43.5352 18.4727V21.5586H27.5586V18.4727H43.5352ZM59.3945 29H53.457L53.4961 25.9336H59.3945C61.4258 25.9336 63.1185 25.5104 64.4727 24.6641C65.8268 23.8047 66.8424 22.6068 67.5195 21.0703C68.2096 19.5208 68.5547 17.7109 68.5547 15.6406V13.9023C68.5547 12.2747 68.3594 10.8294 67.9688 9.56641C67.5781 8.29036 67.0052 7.21615 66.25 6.34375C65.4948 5.45833 64.5703 4.78776 63.4766 4.33203C62.3958 3.8763 61.1523 3.64844 59.7461 3.64844H53.3398V0.5625H59.7461C61.6081 0.5625 63.3073 0.875 64.8438 1.5C66.3802 2.11198 67.7018 3.00391 68.8086 4.17578C69.9284 5.33464 70.7878 6.74089 71.3867 8.39453C71.9857 10.0352 72.2852 11.8841 72.2852 13.9414V15.6406C72.2852 17.6979 71.9857 19.5534 71.3867 21.207C70.7878 22.8477 69.9219 24.2474 68.7891 25.4062C67.6693 26.5651 66.3151 27.457 64.7266 28.082C63.151 28.694 61.3737 29 59.3945 29ZM55.4688 0.5625V29H51.6992V0.5625H55.4688ZM93.1055 21.8125C93.1055 21.1484 93.0013 20.5625 92.793 20.0547C92.5977 19.5339 92.2461 19.0651 91.7383 18.6484C91.2435 18.2318 90.5534 17.8346 89.668 17.457C88.7956 17.0794 87.6888 16.6953 86.3477 16.3047C84.9414 15.888 83.6719 15.4258 82.5391 14.918C81.4062 14.3971 80.4362 13.8047 79.6289 13.1406C78.8216 12.4766 78.2031 11.7148 77.7734 10.8555C77.3438 9.99609 77.1289 9.01302 77.1289 7.90625C77.1289 6.79948 77.3568 5.77734 77.8125 4.83984C78.2682 3.90234 78.9193 3.08854 79.7656 2.39844C80.625 1.69531 81.6471 1.14844 82.832 0.757812C84.0169 0.367188 85.3385 0.171875 86.7969 0.171875C88.9323 0.171875 90.7422 0.582031 92.2266 1.40234C93.724 2.20964 94.8633 3.27083 95.6445 4.58594C96.4258 5.88802 96.8164 7.28125 96.8164 8.76562H93.0664C93.0664 7.69792 92.8385 6.75391 92.3828 5.93359C91.9271 5.10026 91.237 4.44922 90.3125 3.98047C89.388 3.4987 88.2161 3.25781 86.7969 3.25781C85.4557 3.25781 84.349 3.45964 83.4766 3.86328C82.6042 4.26693 81.9531 4.8138 81.5234 5.50391C81.1068 6.19401 80.8984 6.98177 80.8984 7.86719C80.8984 8.46615 81.0221 9.01302 81.2695 9.50781C81.5299 9.98958 81.9271 10.4388 82.4609 10.8555C83.0078 11.2721 83.6979 11.6562 84.5312 12.0078C85.3776 12.3594 86.3867 12.6979 87.5586 13.0234C89.1732 13.4792 90.5664 13.987 91.7383 14.5469C92.9102 15.1068 93.8737 15.7383 94.6289 16.4414C95.3971 17.1315 95.9635 17.9193 96.3281 18.8047C96.7057 19.6771 96.8945 20.6667 96.8945 21.7734C96.8945 22.9323 96.6602 23.9805 96.1914 24.918C95.7227 25.8555 95.0521 26.6562 94.1797 27.3203C93.3073 27.9844 92.2591 28.4987 91.0352 28.8633C89.8242 29.2148 88.4701 29.3906 86.9727 29.3906C85.6576 29.3906 84.362 29.2083 83.0859 28.8438C81.8229 28.4792 80.6706 27.9323 79.6289 27.2031C78.6003 26.474 77.7734 25.5755 77.1484 24.5078C76.5365 23.4271 76.2305 22.1771 76.2305 20.7578H79.9805C79.9805 21.7344 80.1693 22.5742 80.5469 23.2773C80.9245 23.9674 81.4388 24.5404 82.0898 24.9961C82.7539 25.4518 83.5026 25.7904 84.3359 26.0117C85.1823 26.2201 86.0612 26.3242 86.9727 26.3242C88.2878 26.3242 89.401 26.1419 90.3125 25.7773C91.224 25.4128 91.9141 24.8919 92.3828 24.2148C92.8646 23.5378 93.1055 22.737 93.1055 21.8125Z" fill="black"/>
</svg>
